

<svg width="100%" height="100%" viewBox="0 0 580 212" version="1.1" xmlns="http://www.w3.org/2000/svg" xmlns:xlink="http://www.w3.org/1999/xlink" xml:space="preserve" style="fill-rule:evenodd;clip-rule:evenodd;stroke-linejoin:round;stroke-miterlimit:2">
    <g transform="matrix(1,0,0,1,-1,-0.221161)">
        <path d="M560,166L536,166L536,149.5C536,144.257 531.743,140 526.5,140C521.257,140 517,144.257 517,149.5L517,201.5C517,206.743 521.257,211 526.5,211C531.743,211 536,206.743 536,201.5L536,185L560,185L560,201.5C560,206.743 564.257,211 569.5,211C574.743,211 579,206.743 579,201.5L579,149.5C579,144.257 574.743,140 569.5,140C564.257,140 560,144.257 560,149.5L560,166Z" style="fill:rgb(242,169,0)"></path>
        <path d="M502.602,200.602L502.602,200.602C495.945,207.26 486.915,211 477.5,211C457.907,211 442,195.093 442,175.5C442,155.907 457.907,140 477.5,140C486.915,140 495.945,143.74 502.602,150.398C506.274,154.069 506.274,160.031 502.602,163.702C498.931,167.373 492.969,167.373 489.298,163.702L489.298,163.702C486.169,160.573 481.925,158.815 477.5,158.815C468.291,158.815 460.815,166.291 460.815,175.5C460.815,184.709 468.291,192.185 477.5,192.185C481.924,192.185 486.167,190.428 489.296,187.3L489.298,187.298C492.969,183.627 498.931,183.627 502.602,187.298C506.274,190.969 506.274,196.931 502.602,200.602L502.602,200.602Z" style="fill:rgb(242,169,0)"></path>
        <path d="M411,181L411,149.5C411,144.257 415.257,140 420.5,140C425.743,140 430,144.257 430,149.5L430,182C430,182.424 429.972,182.841 429.918,183.251C428.767,199.043 415.588,211.5 399.5,211.5C384.126,211.5 371.409,200.125 369.305,185.33C369.106,184.587 369,183.806 369,183L369,149C369,144.033 373.033,140 378,140C382.967,140 387,144.033 387,149L387,181C387,187.623 392.377,193 399,193C405.623,193 411,187.623 411,181L411,181Z" style="fill:rgb(242,169,0)"></path>
        <g transform="matrix(0.986111,0,0,0.986111,-16.1055,1.94444)">
            <path d="M342.36,140C362.229,140 378.36,156.131 378.36,176C378.36,195.869 362.229,212 342.36,212C322.492,212 306.36,195.869 306.36,176C306.36,156.131 322.492,140 342.36,140ZM342.36,159.08C351.699,159.08 359.28,166.662 359.28,176C359.28,185.338 351.699,192.92 342.36,192.92C333.022,192.92 325.44,185.338 325.44,176C325.44,166.662 333.022,159.08 342.36,159.08Z" style="fill:rgb(242,169,0)"></path>
        </g>
        <path d="M271,141L218.15,141C213.183,141 209.15,145.033 209.15,150C209.15,154.967 213.183,159 218.15,159L237,159L237,201C237,205.967 241.033,210 246,210C250.967,210 255,205.967 255,201L255,159L271,159C275.967,159 280,154.967 280,150C280,145.033 275.967,141 271,141Z" style="fill:rgb(242,169,0)"></path>
        <path d="M498.424,53.936C496.438,38.983 507.034,27.243 520,21.8C535.403,15.334 560.582,17.387 572.939,29.889C578.745,35.763 572.349,45.051 566.261,47.045C561.226,48.694 556.562,43.805 551.951,42.813C547.433,41.842 542.822,41.032 538.201,41.048C534.037,41.062 521.238,41.629 520.688,49.172C520.159,56.422 531.868,56.942 536.7,57.9C554.851,61.498 580.326,66.721 580.648,89.984C581.101,122.762 542.722,128.583 517.349,122.615C511.184,121.165 500.987,116.131 498.097,109.955C495.041,103.423 500.025,93.243 508.087,94.188C514.597,94.95 513.866,96.609 518.185,98.081C528.113,101.463 530.085,102.416 541.4,101.8C545.532,101.575 556.105,101.395 557.7,95C561.122,81.278 537.352,80.75 531.1,79.1C517.593,75.535 499.308,71.208 498.424,53.936Z" style="fill:rgb(92,71,56)"></path>
        <g transform="matrix(0.467088,-0.916145,1.16807,0.595531,213.697,438.369)">
            <path d="M500,35.5C500,30.809 495.144,27 489.163,27L453.837,27C447.856,27 443,30.809 443,35.5C443,40.191 447.856,44 453.837,44L489.163,44C495.144,44 500,40.191 500,35.5Z" style="fill:rgb(242,169,0)"></path>
        </g>
        <path d="M430.008,19C430.619,19 431.234,19.056 431.845,19.17C433.096,19.404 434.266,19.871 435.307,20.525C436.642,21.36 437.717,22.466 438.5,23.733C439.451,25.263 440,27.068 440,29L440,113C440,118.519 435.519,123 430,123C424.481,123 420,118.519 420,113L420,67.806C420,67.806 395.325,114.933 394.201,116.5C393.362,117.67 392.256,118.676 390.913,119.417C390.879,119.436 390.844,119.455 390.81,119.473C389.271,120.44 387.45,121 385.5,121C383.55,121 381.729,120.44 380.19,119.473C380.156,119.455 380.121,119.436 380.087,119.417C378.744,118.676 377.638,117.67 376.799,116.5C375.675,114.933 351,67.806 351,67.806L351,113C351,118.519 346.519,123 341,123C335.481,123 331,118.519 331,113L331,29C331,27.068 331.549,25.263 332.5,23.733C333.282,22.467 334.358,21.36 335.693,20.525C336.734,19.871 337.904,19.404 339.155,19.17C339.766,19.056 340.38,19 340.992,19L341,19C341.739,19.002 342.476,19.081 343.197,19.242C344.231,19.475 345.221,19.875 346.132,20.417L346.133,20.418C347.556,21.267 348.787,22.48 349.668,24.013C349.711,24.087 349.753,24.162 349.793,24.237L385.5,88.919L421.207,24.237C421.247,24.162 421.289,24.087 421.332,24.013C422.213,22.48 423.444,21.267 424.867,20.418C426.368,19.518 428.124,19 430,19L430.008,19Z" style="fill:rgb(92,71,56)"></path>
        <g transform="matrix(1.51389,0,0,1.51389,-256.796,-194.944)">
            <path d="M342.36,140C362.229,140 378.36,156.131 378.36,176C378.36,195.869 362.229,212 342.36,212C322.492,212 306.36,195.869 306.36,176C306.36,156.131 322.492,140 342.36,140ZM342.36,154.76C354.083,154.76 363.6,164.277 363.6,176C363.6,187.723 354.083,197.24 342.36,197.24C330.638,197.24 321.12,187.723 321.12,176C321.12,164.277 330.638,154.76 342.36,154.76Z" style="fill:rgb(92,71,56)"></path>
        </g>
        <path d="M12,18L12.037,18C14.172,18.007 16.165,18.624 17.85,19.685C19.387,20.648 20.705,22.002 21.636,23.694L21.649,23.717C21.723,23.851 21.793,23.987 21.862,24.124L96,170.259L170.138,24.124C170.207,23.987 170.278,23.851 170.351,23.717L170.364,23.694C171.295,22.002 172.612,20.648 174.15,19.685C175.835,18.624 177.828,18.007 179.963,18L180,18L180.013,18C180.473,18 180.935,18.029 181.396,18.088L181.436,18.093L181.469,18.097L181.506,18.102C183.123,18.324 184.629,18.898 185.943,19.744C187.225,20.565 188.287,21.62 189.101,22.823C190.294,24.576 190.993,26.69 191,28.967L191,29L191,200C191,206.071 186.071,211 180,211C173.929,211 169,206.071 169,200L169,74.994L106.096,198.984C104.114,202.892 100.11,205.108 96,205.005C91.89,205.108 87.886,202.892 85.904,198.984L23,74.994L23,200C23,206.071 18.071,211 12,211C5.929,211 1,206.071 1,200L1,29L1,28.967C1.007,26.69 1.706,24.576 2.899,22.823C3.713,21.62 4.775,20.565 6.057,19.744C7.371,18.898 8.877,18.324 10.494,18.102L10.531,18.097L10.564,18.093L10.604,18.088C11.065,18.029 11.527,18 11.987,18L12,18Z" style="fill:rgb(92,71,56)"></path>
    </g>
</svg>
